<svg xmlns="http://www.w3.org/2000/svg" width="880" height="380" viewBox="0 0 880 380" role="img" aria-label="Career timeline from 2016 to today">
  <title>Career timeline</title>
  
  <defs>
    <linearGradient id="tl-edge" x1="0" y1="0" x2="1" y2="1">
      <stop offset="0" stop-color="#3b82f6"/>
      <stop offset="1" stop-color="#f0a04b"/>
    </linearGradient>
    <radialGradient id="tl-glow" cx="0.85" cy="0" r="0.9">
      <stop offset="0" stop-color="#3b82f6" stop-opacity="0.22"/>
      <stop offset="1" stop-color="#3b82f6" stop-opacity="0"/>
    </radialGradient>
  </defs>
  <style>
    text { font-family: 'Segoe UI', Ubuntu, 'Helvetica Neue', Arial, sans-serif; }
    .h { font-size: 11px; letter-spacing: 1.8px; fill: #f0a04b; font-weight: 600; }
    .yr { font-family: ui-monospace, SFMono-Regular, 'Cascadia Mono', Consolas, 'Liberation Mono', monospace; font-size: 10.5px; fill: #8b97ad; }
    .lg { font-family: ui-monospace, SFMono-Regular, 'Cascadia Mono', Consolas, 'Liberation Mono', monospace; font-size: 10.5px; }
    .lb { font-size: 12.5px; fill: #e6ebf5; font-weight: 600; }
    .sb { font-size: 11px; fill: #8b97ad; }
    .row { opacity: 0; animation: in .45s ease-out forwards; }
    .pulse { animation: pulse 1.6s ease-in-out infinite; }
    @keyframes in { from { opacity: 0; transform: translateX(-8px); } to { opacity: 1; transform: none; } }
    @keyframes pulse { 50% { opacity: .2; } }
    @media (prefers-reduced-motion: reduce) { .row, .pulse { animation: none; opacity: 1; } }
  </style>
  <rect x="1" y="1" width="878" height="378" rx="14" fill="#0a0d14" stroke="url(#tl-edge)" stroke-opacity=".5"/>
  <rect x="1" y="1" width="878" height="378" rx="14" fill="url(#tl-glow)"/>
  <text x="28" y="34" class="h">CAREER · 2016 → TODAY</text>
  <text x="852" y="34" text-anchor="end" class="lg"><tspan fill="#f0a04b">● current</tspan><tspan fill="#60a5fa">   ● industry</tspan><tspan fill="#34d399">   ● research</tspan><tspan fill="#8b97ad">   ● education</tspan></text>
  <line x1="300.0" y1="54" x2="300.0" y2="332" stroke="#1d2a40"/><text x="303.0" y="352" class="yr">16</text><line x1="350.2" y1="54" x2="350.2" y2="332" stroke="#1d2a40"/><text x="353.2" y="352" class="yr">17</text><line x1="400.4" y1="54" x2="400.4" y2="332" stroke="#1d2a40"/><text x="403.4" y="352" class="yr">18</text><line x1="450.5" y1="54" x2="450.5" y2="332" stroke="#1d2a40"/><text x="453.5" y="352" class="yr">19</text><line x1="500.7" y1="54" x2="500.7" y2="332" stroke="#1d2a40"/><text x="503.7" y="352" class="yr">20</text><line x1="550.9" y1="54" x2="550.9" y2="332" stroke="#1d2a40"/><text x="553.9" y="352" class="yr">21</text><line x1="601.1" y1="54" x2="601.1" y2="332" stroke="#1d2a40"/><text x="604.1" y="352" class="yr">22</text><line x1="651.3" y1="54" x2="651.3" y2="332" stroke="#1d2a40"/><text x="654.3" y="352" class="yr">23</text><line x1="701.5" y1="54" x2="701.5" y2="332" stroke="#1d2a40"/><text x="704.5" y="352" class="yr">24</text><line x1="751.6" y1="54" x2="751.6" y2="332" stroke="#1d2a40"/><text x="754.6" y="352" class="yr">25</text><line x1="801.8" y1="54" x2="801.8" y2="332" stroke="#1d2a40"/><text x="804.8" y="352" class="yr">26</text><line x1="852.0" y1="54" x2="852.0" y2="332" stroke="#1d2a40"/>
  <g class="row" style="animation-delay:0.15s"><text x="28" y="70" class="lb">B.Sc. Computational Mathematics</text><text x="28" y="83" class="sb">University of Karachi</text><rect x="300.0" y="60" width="145.5" height="12" rx="6" fill="#8b97ad"/></g><g class="row" style="animation-delay:0.27s"><text x="28" y="100" class="lb">IT Engineer</text><text x="28" y="113" class="sb">The Active Solutions</text><rect x="463.1" y="90" width="47.7" height="12" rx="6" fill="#3b82f6"/></g><g class="row" style="animation-delay:0.39s"><text x="28" y="130" class="lb">IT Specialist</text><text x="28" y="143" class="sb">Target Logistics International</text><rect x="525.8" y="120" width="60.2" height="12" rx="6" fill="#3b82f6"/></g><g class="row" style="animation-delay:0.51s"><text x="28" y="160" class="lb">IT Specialist</text><text x="28" y="173" class="sb">KTDMC</text><rect x="588.5" y="150" width="32.6" height="12" rx="6" fill="#3b82f6"/></g><g class="row" style="animation-delay:0.63s"><text x="28" y="190" class="lb">IT Specialist</text><text x="28" y="203" class="sb">Liberty Books</text><rect x="622.2" y="180" width="19.1" height="12" rx="6" fill="#3b82f6"/></g><g class="row" style="animation-delay:0.75s"><text x="28" y="220" class="lb">IT Engineer · contract</text><text x="28" y="233" class="sb">TestSolutions GmbH</text><rect x="655.3" y="210" width="93.8" height="12" rx="6" fill="#60a5fa"/></g><g class="row" style="animation-delay:0.87s"><text x="28" y="250" class="lb">M.Sc. Data Science</text><text x="28" y="263" class="sb">University of Göttingen</text><rect x="651.3" y="240" width="148.0" height="12" rx="6" fill="#8b97ad"/></g><g class="row" style="animation-delay:0.99s"><text x="28" y="280" class="lb">IT Engineer</text><text x="28" y="293" class="sb">Kontinental Establishment</text><rect x="663.8" y="270" width="171.5" height="12" rx="6" fill="#f0a04b"/><circle cx="835.3" cy="276" r="4.5" fill="#f0a04b" class="pulse"/></g><g class="row" style="animation-delay:1.11s"><text x="28" y="310" class="lb">DevSecOps · Scientific Computing</text><text x="28" y="323" class="sb">University of Göttingen</text><rect x="714.0" y="300" width="22.6" height="12" rx="6" fill="#34d399"/></g>
</svg>
